<mxfile host="app.diagrams.net" modified="2023-09-18T06:49:17.323Z" agent="Mozilla/5.0 (Windows NT 10.0; Win64; x64) AppleWebKit/537.36 (KHTML, like Gecko) Chrome/115.0.0.0 Safari/537.36 OPR/101.0.0.0" etag="kpKiD_Iwjs5DyTnNvfEP" version="21.7.5" type="device">
  <diagram name="Seite-1" id="SCXLYtp1hvXJCitAK11k">
    <mxGraphModel dx="1374" dy="777" grid="1" gridSize="10" guides="1" tooltips="1" connect="1" arrows="1" fold="1" page="1" pageScale="1" pageWidth="827" pageHeight="1169" math="0" shadow="0">
      <root>
        <mxCell id="0" />
        <mxCell id="1" parent="0" />
        <mxCell id="bjbixO9ZaMcOZrDFpSg7-6" value="" style="edgeStyle=orthogonalEdgeStyle;rounded=0;orthogonalLoop=1;jettySize=auto;html=1;" edge="1" parent="1" source="bjbixO9ZaMcOZrDFpSg7-1" target="bjbixO9ZaMcOZrDFpSg7-5">
          <mxGeometry relative="1" as="geometry" />
        </mxCell>
        <mxCell id="bjbixO9ZaMcOZrDFpSg7-1" value="Datenbankstruktur" style="rounded=0;whiteSpace=wrap;html=1;" vertex="1" parent="1">
          <mxGeometry x="100" y="150" width="120" height="60" as="geometry" />
        </mxCell>
        <mxCell id="bjbixO9ZaMcOZrDFpSg7-10" value="" style="edgeStyle=orthogonalEdgeStyle;rounded=0;orthogonalLoop=1;jettySize=auto;html=1;" edge="1" parent="1" source="bjbixO9ZaMcOZrDFpSg7-2" target="bjbixO9ZaMcOZrDFpSg7-9">
          <mxGeometry relative="1" as="geometry" />
        </mxCell>
        <mxCell id="bjbixO9ZaMcOZrDFpSg7-2" value="Menüstruktur" style="rounded=0;whiteSpace=wrap;html=1;" vertex="1" parent="1">
          <mxGeometry x="560" y="150" width="120" height="60" as="geometry" />
        </mxCell>
        <mxCell id="bjbixO9ZaMcOZrDFpSg7-8" value="" style="edgeStyle=orthogonalEdgeStyle;rounded=0;orthogonalLoop=1;jettySize=auto;html=1;" edge="1" parent="1" source="bjbixO9ZaMcOZrDFpSg7-3" target="bjbixO9ZaMcOZrDFpSg7-7">
          <mxGeometry relative="1" as="geometry" />
        </mxCell>
        <mxCell id="bjbixO9ZaMcOZrDFpSg7-3" value="Auswahl der API" style="rounded=0;whiteSpace=wrap;html=1;" vertex="1" parent="1">
          <mxGeometry x="320" y="150" width="120" height="60" as="geometry" />
        </mxCell>
        <mxCell id="bjbixO9ZaMcOZrDFpSg7-18" value="" style="edgeStyle=orthogonalEdgeStyle;rounded=0;orthogonalLoop=1;jettySize=auto;html=1;" edge="1" parent="1" source="bjbixO9ZaMcOZrDFpSg7-4" target="bjbixO9ZaMcOZrDFpSg7-17">
          <mxGeometry relative="1" as="geometry" />
        </mxCell>
        <mxCell id="bjbixO9ZaMcOZrDFpSg7-4" value="Kommunikation zwischen DB/API/Menü" style="rounded=0;whiteSpace=wrap;html=1;" vertex="1" parent="1">
          <mxGeometry x="320" y="380" width="120" height="60" as="geometry" />
        </mxCell>
        <mxCell id="bjbixO9ZaMcOZrDFpSg7-5" value="Datenbankhandler" style="rounded=0;whiteSpace=wrap;html=1;" vertex="1" parent="1">
          <mxGeometry x="100" y="250" width="120" height="60" as="geometry" />
        </mxCell>
        <mxCell id="bjbixO9ZaMcOZrDFpSg7-7" value="API-Einbindung" style="rounded=0;whiteSpace=wrap;html=1;" vertex="1" parent="1">
          <mxGeometry x="320" y="250" width="120" height="60" as="geometry" />
        </mxCell>
        <mxCell id="bjbixO9ZaMcOZrDFpSg7-9" value="Menüdesign" style="rounded=0;whiteSpace=wrap;html=1;" vertex="1" parent="1">
          <mxGeometry x="560" y="250" width="120" height="60" as="geometry" />
        </mxCell>
        <mxCell id="bjbixO9ZaMcOZrDFpSg7-11" value="" style="endArrow=classic;html=1;rounded=0;exitX=0.5;exitY=1;exitDx=0;exitDy=0;entryX=0;entryY=0;entryDx=0;entryDy=0;" edge="1" parent="1" source="bjbixO9ZaMcOZrDFpSg7-5" target="bjbixO9ZaMcOZrDFpSg7-4">
          <mxGeometry width="50" height="50" relative="1" as="geometry">
            <mxPoint x="390" y="430" as="sourcePoint" />
            <mxPoint x="440" y="380" as="targetPoint" />
          </mxGeometry>
        </mxCell>
        <mxCell id="bjbixO9ZaMcOZrDFpSg7-12" value="" style="endArrow=classic;html=1;rounded=0;entryX=0.5;entryY=0;entryDx=0;entryDy=0;exitX=0.5;exitY=1;exitDx=0;exitDy=0;" edge="1" parent="1" source="bjbixO9ZaMcOZrDFpSg7-7" target="bjbixO9ZaMcOZrDFpSg7-4">
          <mxGeometry width="50" height="50" relative="1" as="geometry">
            <mxPoint x="390" y="430" as="sourcePoint" />
            <mxPoint x="440" y="380" as="targetPoint" />
          </mxGeometry>
        </mxCell>
        <mxCell id="bjbixO9ZaMcOZrDFpSg7-13" value="" style="endArrow=classic;html=1;rounded=0;exitX=0.5;exitY=1;exitDx=0;exitDy=0;" edge="1" parent="1" source="bjbixO9ZaMcOZrDFpSg7-9">
          <mxGeometry width="50" height="50" relative="1" as="geometry">
            <mxPoint x="390" y="430" as="sourcePoint" />
            <mxPoint x="440" y="380" as="targetPoint" />
          </mxGeometry>
        </mxCell>
        <mxCell id="bjbixO9ZaMcOZrDFpSg7-20" value="" style="edgeStyle=orthogonalEdgeStyle;rounded=0;orthogonalLoop=1;jettySize=auto;html=1;" edge="1" parent="1" source="bjbixO9ZaMcOZrDFpSg7-17" target="bjbixO9ZaMcOZrDFpSg7-19">
          <mxGeometry relative="1" as="geometry" />
        </mxCell>
        <mxCell id="bjbixO9ZaMcOZrDFpSg7-22" value="" style="edgeStyle=orthogonalEdgeStyle;rounded=0;orthogonalLoop=1;jettySize=auto;html=1;" edge="1" parent="1" source="bjbixO9ZaMcOZrDFpSg7-17" target="bjbixO9ZaMcOZrDFpSg7-21">
          <mxGeometry relative="1" as="geometry" />
        </mxCell>
        <mxCell id="bjbixO9ZaMcOZrDFpSg7-17" value="Toilette hinzufügen" style="rounded=0;whiteSpace=wrap;html=1;" vertex="1" parent="1">
          <mxGeometry x="320" y="470" width="120" height="60" as="geometry" />
        </mxCell>
        <mxCell id="bjbixO9ZaMcOZrDFpSg7-19" value="Tag hinzufügen" style="rounded=0;whiteSpace=wrap;html=1;" vertex="1" parent="1">
          <mxGeometry x="180" y="560" width="120" height="60" as="geometry" />
        </mxCell>
        <mxCell id="bjbixO9ZaMcOZrDFpSg7-21" value="Rezension hinzufügen" style="rounded=0;whiteSpace=wrap;html=1;" vertex="1" parent="1">
          <mxGeometry x="450" y="560" width="120" height="60" as="geometry" />
        </mxCell>
        <mxCell id="bjbixO9ZaMcOZrDFpSg7-23" value="Toimaps" style="rounded=0;whiteSpace=wrap;html=1;" vertex="1" parent="1">
          <mxGeometry x="320" y="680" width="120" height="60" as="geometry" />
        </mxCell>
        <mxCell id="bjbixO9ZaMcOZrDFpSg7-24" value="" style="endArrow=classic;html=1;rounded=0;exitX=0.5;exitY=1;exitDx=0;exitDy=0;entryX=0;entryY=0;entryDx=0;entryDy=0;" edge="1" parent="1" source="bjbixO9ZaMcOZrDFpSg7-19" target="bjbixO9ZaMcOZrDFpSg7-23">
          <mxGeometry width="50" height="50" relative="1" as="geometry">
            <mxPoint x="390" y="560" as="sourcePoint" />
            <mxPoint x="440" y="510" as="targetPoint" />
          </mxGeometry>
        </mxCell>
        <mxCell id="bjbixO9ZaMcOZrDFpSg7-25" value="" style="endArrow=classic;html=1;rounded=0;exitX=0.45;exitY=1.05;exitDx=0;exitDy=0;exitPerimeter=0;entryX=1;entryY=0;entryDx=0;entryDy=0;" edge="1" parent="1" source="bjbixO9ZaMcOZrDFpSg7-21" target="bjbixO9ZaMcOZrDFpSg7-23">
          <mxGeometry width="50" height="50" relative="1" as="geometry">
            <mxPoint x="390" y="560" as="sourcePoint" />
            <mxPoint x="440" y="510" as="targetPoint" />
          </mxGeometry>
        </mxCell>
      </root>
    </mxGraphModel>
  </diagram>
</mxfile>
